<svg xmlns="http://www.w3.org/2000/svg">
<symbol id="facebook" viewBox="0 0 9 19"><mask id="a" maskUnits="userSpaceOnUse" x="0" y="0" width="9" height="19"><path d="M6 6.333v-1.9c0-.823.18-1.266 1.44-1.266H9V0H6.6c-3 0-4.2 2.09-4.2 4.433v1.9H0V9.5h2.4V19H6V9.5h2.64L9 6.333H6z"/></mask><g mask="url(#a)"><path d="M6 6.333v-1.9c0-.823.18-1.266 1.44-1.266H9V0H6.6c-3 0-4.2 2.09-4.2 4.433v1.9H0V9.5h2.4V19H6V9.5h2.64L9 6.333H6z"/></g></symbol>
<symbol id="instagram" viewBox="0 0 19 19"><mask id="a" maskUnits="userSpaceOnUse" x="0" y="0" width="19" height="19"><path d="M9.497 4.626A4.868 4.868 0 0 0 4.623 9.5a4.868 4.868 0 0 0 4.874 4.874A4.868 4.868 0 0 0 14.372 9.5a4.868 4.868 0 0 0-4.875-4.874zm0 8.042A3.175 3.175 0 0 1 6.33 9.5a3.175 3.175 0 0 1 3.168-3.168A3.175 3.175 0 0 1 12.665 9.5a3.175 3.175 0 0 1-3.168 3.168zm5.074-9.378a1.137 1.137 0 1 0 0 2.277 1.136 1.136 0 0 0 1.053-1.575 1.137 1.137 0 0 0-1.053-.702zM19 9.5c0-1.312.012-2.612-.062-3.921-.074-1.521-.42-2.871-1.533-3.984C16.29.481 14.942.136 13.421.062 12.11-.01 10.81.001 9.5.001 8.188 0 6.888-.011 5.579.062 4.058.136 2.708.483 1.595 1.595.481 2.71.136 4.058.062 5.58-.01 6.89.001 8.19.001 9.5c0 1.31-.012 2.612.061 3.921.074 1.521.421 2.871 1.533 3.984 1.115 1.114 2.463 1.459 3.984 1.532 1.311.074 2.611.062 3.92.062 1.313 0 2.613.012 3.922-.061 1.521-.074 2.871-.421 3.983-1.533 1.115-1.115 1.46-2.463 1.533-3.984.076-1.31.062-2.61.062-3.921zm-2.091 5.604a3.02 3.02 0 0 1-.718 1.088 3.04 3.04 0 0 1-1.089.718c-1.25.497-4.218.385-5.604.385-1.385 0-4.356.112-5.606-.382a3.02 3.02 0 0 1-1.088-.718 3.04 3.04 0 0 1-.718-1.089c-.494-1.252-.383-4.22-.383-5.606 0-1.386-.111-4.356.383-5.606a3.02 3.02 0 0 1 .718-1.089 3.072 3.072 0 0 1 1.088-.718c1.25-.494 4.22-.382 5.606-.382 1.386 0 4.357-.112 5.607.382a3.02 3.02 0 0 1 1.088.718c.335.335.544.656.718 1.089.494 1.25.383 4.22.383 5.606 0 1.386.111 4.354-.385 5.604z"/></mask><g mask="url(#a)"><path d="M9.497 4.626A4.868 4.868 0 0 0 4.623 9.5a4.868 4.868 0 0 0 4.874 4.874A4.868 4.868 0 0 0 14.372 9.5a4.868 4.868 0 0 0-4.875-4.874zm0 8.042A3.175 3.175 0 0 1 6.33 9.5a3.175 3.175 0 0 1 3.168-3.168A3.175 3.175 0 0 1 12.665 9.5a3.175 3.175 0 0 1-3.168 3.168zm5.074-9.378a1.137 1.137 0 1 0 0 2.277 1.136 1.136 0 0 0 1.053-1.575 1.137 1.137 0 0 0-1.053-.702zM19 9.5c0-1.312.012-2.612-.062-3.921-.074-1.521-.42-2.871-1.533-3.984C16.29.481 14.942.136 13.421.062 12.11-.01 10.81.001 9.5.001 8.188 0 6.888-.011 5.579.062 4.058.136 2.708.483 1.595 1.595.481 2.71.136 4.058.062 5.58-.01 6.89.001 8.19.001 9.5c0 1.31-.012 2.612.061 3.921.074 1.521.421 2.871 1.533 3.984 1.115 1.114 2.463 1.459 3.984 1.532 1.311.074 2.611.062 3.92.062 1.313 0 2.613.012 3.922-.061 1.521-.074 2.871-.421 3.983-1.533 1.115-1.115 1.46-2.463 1.533-3.984.076-1.31.062-2.61.062-3.921zm-2.091 5.604a3.02 3.02 0 0 1-.718 1.088 3.04 3.04 0 0 1-1.089.718c-1.25.497-4.218.385-5.604.385-1.385 0-4.356.112-5.606-.382a3.02 3.02 0 0 1-1.088-.718 3.04 3.04 0 0 1-.718-1.089c-.494-1.252-.383-4.22-.383-5.606 0-1.386-.111-4.356.383-5.606a3.02 3.02 0 0 1 .718-1.089 3.072 3.072 0 0 1 1.088-.718c1.25-.494 4.22-.382 5.606-.382 1.386 0 4.357-.112 5.607.382a3.02 3.02 0 0 1 1.088.718c.335.335.544.656.718 1.089.494 1.25.383 4.22.383 5.606 0 1.386.111 4.354-.385 5.604z"/></g></symbol>
<symbol id="left-arrow" viewBox="0 0 22 38"><path d="M20.768 20.768a2.5 2.5 0 0 0 0-3.536L4.858 1.322a2.5 2.5 0 1 0-3.536 3.536L15.465 19 1.322 33.142a2.5 2.5 0 0 0 3.536 3.536l15.91-15.91zM18 21.5h1v-5h-1v5z" fill="#616161"/></symbol>
<symbol id="right-arrow" viewBox="0 0 22 38"><path d="M1.232 17.232a2.5 2.5 0 0 0 0 3.536l15.91 15.91a2.5 2.5 0 0 0 3.536-3.536L6.536 19 20.678 4.858a2.5 2.5 0 1 0-3.536-3.536l-15.91 15.91zM4 16.5H3v5h1v-5z" fill="#616161"/></symbol>
<symbol id="vkontakte" viewBox="0 0 34 19"><mask id="a" maskUnits="userSpaceOnUse" x="0" y="0" width="34" height="19"><path fill-rule="evenodd" clip-rule="evenodd" d="M16.686 18.88h2.062s.618-.1.927-.401c.31-.301.31-.904.31-.904s0-2.611 1.236-3.013c1.237-.402 2.886 2.611 4.535 3.716 1.237.904 2.165.703 2.165.703l4.535-.1s2.37-.1 1.237-2.009c-.103-.1-.618-1.306-3.401-3.816-2.886-2.611-2.474-2.11.927-6.629 2.062-2.711 2.886-4.318 2.68-5.121-.206-.703-1.752-.503-1.752-.503h-5.154s-.412-.1-.618.1c-.31.202-.412.503-.412.503s-.825 2.109-1.856 3.917c-2.267 3.716-3.195 3.916-3.504 3.716-.825-.503-.619-2.21-.619-3.315 0-3.615.619-5.121-1.133-5.523C18.335.1 17.923 0 16.48 0c-1.855 0-3.401 0-4.226.402-.618.301-1.03.904-.721.904.309 0 1.133.2 1.546.703.412.903.412 2.41.412 2.41s.31 4.318-.722 4.82c-.721.402-1.649-.401-3.71-3.816-1.03-1.707-1.855-3.716-1.855-3.716s-.104-.401-.413-.602C6.482.904 5.967.803 5.967.803H1.122s-.721 0-1.03.302c-.207.301 0 .803 0 .803s3.813 8.637 8.142 13.056c4.02 4.218 8.452 3.917 8.452 3.917z"/></mask><g mask="url(#a)"><path clip-rule="evenodd" d="M16.686 18.88h2.062s.618-.1.927-.401c.31-.301.31-.904.31-.904s0-2.611 1.236-3.013c1.237-.402 2.886 2.611 4.535 3.716 1.237.904 2.165.703 2.165.703l4.535-.1s2.37-.1 1.237-2.009c-.103-.1-.618-1.306-3.401-3.816-2.886-2.611-2.474-2.11.927-6.629 2.062-2.711 2.886-4.318 2.68-5.121-.206-.703-1.752-.503-1.752-.503h-5.154s-.412-.1-.618.1c-.31.202-.412.503-.412.503s-.825 2.109-1.856 3.917c-2.267 3.716-3.195 3.916-3.504 3.716-.825-.503-.619-2.21-.619-3.315 0-3.615.619-5.121-1.133-5.523C18.335.1 17.923 0 16.48 0c-1.855 0-3.401 0-4.226.402-.618.301-1.03.904-.721.904.309 0 1.133.2 1.546.703.412.903.412 2.41.412 2.41s.31 4.318-.722 4.82c-.721.402-1.649-.401-3.71-3.816-1.03-1.707-1.855-3.716-1.855-3.716s-.104-.401-.413-.602C6.482.904 5.967.803 5.967.803H1.122s-.721 0-1.03.302c-.207.301 0 .803 0 .803s3.813 8.637 8.142 13.056c4.02 4.218 8.452 3.917 8.452 3.917z"/></g></symbol>
</svg>