<svg width="9" height="19" viewBox="0 0 9 19" fill="none" xmlns="http://www.w3.org/2000/svg">
<mask id="mask0" mask-type="alpha" maskUnits="userSpaceOnUse" x="0" y="0" width="9" height="19">
<path d="M6 6.33333V4.43333C6 3.61 6.18 3.16667 7.44 3.16667H9V0H6.6C3.6 0 2.4 2.09 2.4 4.43333V6.33333H0V9.5H2.4V19H6V9.5H8.64L9 6.33333H6Z"/>
</mask>
<g mask="url(#mask0)">
<path d="M6 6.33333V4.43333C6 3.61 6.18 3.16667 7.44 3.16667H9V0H6.6C3.6 0 2.4 2.09 2.4 4.43333V6.33333H0V9.5H2.4V19H6V9.5H8.64L9 6.33333H6Z"/>
</g>
</svg>
