<svg width="34" height="19" viewBox="0 0 34 19" fill="none" xmlns="http://www.w3.org/2000/svg">
<mask id="mask0" mask-type="alpha" maskUnits="userSpaceOnUse" x="0" y="0" width="34" height="19">
<path fill-rule="evenodd" clip-rule="evenodd" d="M16.6861 18.8806H18.7476C18.7476 18.8806 19.366 18.7801 19.6752 18.4788C19.9844 18.1776 19.9844 17.575 19.9844 17.575C19.9844 17.575 19.9844 14.9638 21.2213 14.5621C22.4581 14.1604 24.1073 17.1733 25.7564 18.278C26.9933 19.1818 27.9209 18.981 27.9209 18.981L32.4561 18.8806C32.4561 18.8806 34.8267 18.7801 33.6929 16.872C33.5898 16.7716 33.0745 15.5664 30.2916 13.0557C27.4056 10.4446 27.8178 10.9467 31.2192 6.42742C33.2806 3.71585 34.1052 2.109 33.8991 1.30557C33.6929 0.60257 32.1468 0.803427 32.1468 0.803427H26.9933C26.9933 0.803427 26.581 0.702999 26.3748 0.903856C26.0656 1.10471 25.9626 1.406 25.9626 1.406C25.9626 1.406 25.138 3.515 24.1073 5.32271C21.8397 9.03856 20.9121 9.23942 20.6028 9.03856C19.7783 8.53642 19.9844 6.82914 19.9844 5.72442C19.9844 2.109 20.6028 0.60257 18.8506 0.200856C18.3353 0.100427 17.923 0 16.48 0C14.6247 0 13.0786 -3.8909e-07 12.254 0.401714C11.6356 0.702999 11.2233 1.30557 11.5326 1.30557C11.8418 1.30557 12.6663 1.50643 13.0786 2.00857C13.4909 2.91243 13.4909 4.41885 13.4909 4.41885C13.4909 4.41885 13.8001 8.73728 12.7694 9.23942C12.0479 9.64113 11.1203 8.83771 9.05884 5.42314C8.02812 3.71585 7.20355 1.70728 7.20355 1.70728C7.20355 1.70728 7.10048 1.30557 6.79126 1.10471C6.48205 0.903857 5.96669 0.803427 5.96669 0.803427H1.12233C1.12233 0.803427 0.400833 0.803428 0.0916191 1.10471C-0.114524 1.406 0.0916191 1.90814 0.0916191 1.90814C0.0916191 1.90814 3.90526 10.545 8.23426 14.9638C12.2541 19.1818 16.6861 18.8806 16.6861 18.8806Z"/>
</mask>
<g mask="url(#mask0)">
<path fill-rule="evenodd" clip-rule="evenodd" d="M16.6861 18.8806H18.7476C18.7476 18.8806 19.366 18.7801 19.6752 18.4788C19.9844 18.1776 19.9844 17.575 19.9844 17.575C19.9844 17.575 19.9844 14.9638 21.2213 14.5621C22.4581 14.1604 24.1073 17.1733 25.7564 18.278C26.9933 19.1818 27.9209 18.981 27.9209 18.981L32.4561 18.8806C32.4561 18.8806 34.8267 18.7801 33.6929 16.872C33.5898 16.7716 33.0745 15.5664 30.2916 13.0557C27.4056 10.4446 27.8178 10.9467 31.2192 6.42742C33.2806 3.71585 34.1052 2.109 33.8991 1.30557C33.6929 0.60257 32.1468 0.803427 32.1468 0.803427H26.9933C26.9933 0.803427 26.581 0.702999 26.3748 0.903856C26.0656 1.10471 25.9626 1.406 25.9626 1.406C25.9626 1.406 25.138 3.515 24.1073 5.32271C21.8397 9.03856 20.9121 9.23942 20.6028 9.03856C19.7783 8.53642 19.9844 6.82914 19.9844 5.72442C19.9844 2.109 20.6028 0.60257 18.8506 0.200856C18.3353 0.100427 17.923 0 16.48 0C14.6247 0 13.0786 -3.8909e-07 12.254 0.401714C11.6356 0.702999 11.2233 1.30557 11.5326 1.30557C11.8418 1.30557 12.6663 1.50643 13.0786 2.00857C13.4909 2.91243 13.4909 4.41885 13.4909 4.41885C13.4909 4.41885 13.8001 8.73728 12.7694 9.23942C12.0479 9.64113 11.1203 8.83771 9.05884 5.42314C8.02812 3.71585 7.20355 1.70728 7.20355 1.70728C7.20355 1.70728 7.10048 1.30557 6.79126 1.10471C6.48205 0.903857 5.96669 0.803427 5.96669 0.803427H1.12233C1.12233 0.803427 0.400833 0.803428 0.0916191 1.10471C-0.114524 1.406 0.0916191 1.90814 0.0916191 1.90814C0.0916191 1.90814 3.90526 10.545 8.23426 14.9638C12.2541 19.1818 16.6861 18.8806 16.6861 18.8806Z"/>
</g>
</svg>
